<?xml version="1.0" encoding="UTF-8"?> <svg xmlns="http://www.w3.org/2000/svg" width="400" height="125.163" viewBox="0 0 400 125.163"><g id="Group_2502" data-name="Group 2502" transform="translate(-126.362 -331.502)"><g id="Group_3" data-name="Group 3" transform="translate(243.523 383.265)"><g id="Group_2" data-name="Group 2"><path id="Path_1" data-name="Path 1" d="M204.5,405.153H215.93c0,3.354,3.2,5.945,7.132,5.945,3.711,0,6.551-1.982,6.551-5.411,0-2.059-1.093-3.964-5.533-5.489l-5.967-1.9c-11.062-3.126-13.172-10.213-13.172-15.169,0-9.45,7.714-16.082,17.685-16.082,9.606,0,16.956,6.021,16.956,16.235H228.157c0-3.125-1.82-5.792-5.75-5.792-3.565,0-5.9,2.514-5.9,5.411,0,1.068.292,3.429,4.949,4.8l5.24,1.754c7.132,2.286,14.41,6.1,14.41,15.624,0,11.281-9.315,16.311-18.485,16.311C211.927,421.388,204.5,414.833,204.5,405.153Z" transform="translate(-204.504 -365.518)" fill="#1a1a1a"></path><path id="Path_2" data-name="Path 2" d="M230.784,397.078A18.45,18.45,0,1,1,249.2,415.752,18.305,18.305,0,0,1,230.784,397.078Zm25.908,0c0-4.877-3.348-8.308-7.5-8.308s-7.5,3.43-7.5,8.308,3.347,8.231,7.5,8.231S256.692,401.955,256.692,397.078Z" transform="translate(-191.382 -359.883)" fill="#1a1a1a"></path><path id="Path_3" data-name="Path 3" d="M292.04,395.706v19.131H281.268V396.393c0-5.489-3.2-7.623-5.9-7.623-2.91,0-6.549,1.6-6.549,7.546v18.521H258.053V379.243h10.771v6.4c1.163-5.032,6.549-7.317,9.752-7.317C287.6,378.329,292.04,384.808,292.04,395.706Z" transform="translate(-177.765 -359.883)" fill="#1a1a1a"></path><path id="Path_4" data-name="Path 4" d="M310.206,379.243h10.7v31.326c0,15.091-7.569,22.713-19.868,22.713a18.227,18.227,0,0,1-16.957-11.432l8.879-3.735a9.067,9.067,0,0,0,8.078,5.258c5.6,0,9.17-3.277,9.17-11.432v-1.068c-2.547,3.354-7.059,4.879-10.552,4.879-8.443,0-16.448-7.242-16.448-18.751s8-18.673,16.448-18.673c3.493,0,8,1.447,10.552,4.8ZM309.769,397a7.834,7.834,0,1,0-15.647,0c0,4.5,3.639,8.308,7.86,8.308C306.131,405.309,309.769,401.574,309.769,397Z" transform="translate(-165.206 -359.883)" fill="#1a1a1a"></path><path id="Path_5" data-name="Path 5" d="M350.077,403.145c0,11.509-8.006,18.751-16.521,18.751-3.493,0-8-1.448-10.479-4.879v3.964H312.306V366.026h10.771v23.247c2.474-3.354,6.985-4.8,10.479-4.8C342.071,384.472,350.077,391.636,350.077,403.145Zm-10.917,0a7.872,7.872,0,1,0-7.861,8.308C335.522,411.453,339.16,407.643,339.16,403.145Z" transform="translate(-150.675 -366.026)" fill="#1a1a1a"></path><path id="Path_6" data-name="Path 6" d="M339.206,373.191a6.591,6.591,0,0,1,6.7-6.555,6.467,6.467,0,0,1,6.549,6.555,6.562,6.562,0,0,1-6.549,6.555A6.689,6.689,0,0,1,339.206,373.191Zm1.31,47.485V385.082h10.771v35.594Z" transform="translate(-137.243 -365.721)" fill="#1a1a1a"></path><path id="Path_7" data-name="Path 7" d="M375.108,378.523c-3.507-.822-10.777,1.018-13.272,7.173v-6.458H351.21v35.594h10.771v-15.62c0-10.386,7.87-10.447,13.126-9.2Z" transform="translate(-131.249 -359.878)" fill="#1a1a1a"></path><path id="Path_8" data-name="Path 8" d="M395,366.026h10.7v54.955H395v-3.964c-2.474,3.43-7.059,4.879-10.552,4.879-8.441,0-16.448-7.242-16.448-18.751s8.006-18.672,16.448-18.672c3.493,0,8.078,1.447,10.552,4.8Zm-.436,37.119a7.834,7.834,0,1,0-15.647,0c0,4.5,3.639,8.308,7.861,8.308C390.929,411.453,394.568,407.718,394.568,403.145Z" transform="translate(-122.864 -366.026)" fill="#1a1a1a"></path></g></g><g id="Group_4" data-name="Group 4" transform="translate(405.153 444.829)"><path id="Path_9" data-name="Path 9" d="M314.912,416.383h4.2v2.275h-6.805V407.219h2.606Z" transform="translate(-312.306 -407.021)" fill="#3da37b"></path><path id="Path_10" data-name="Path 10" d="M319.048,418.657V407.219h2.606v11.438Z" transform="translate(-308.94 -407.021)" fill="#3da37b"></path><path id="Path_11" data-name="Path 11" d="M330.89,409.493h-4.63V411.9h3.669v2.258H326.26v4.5h-2.606V407.219h7.236Z" transform="translate(-306.64 -407.021)" fill="#3da37b"></path><path id="Path_12" data-name="Path 12" d="M333.445,416.383h4.882v2.275h-7.488V407.219h7.336v2.274h-4.73v2.357h4.15v2.342h-4.15Z" transform="translate(-303.052 -407.021)" fill="#3da37b"></path><path id="Path_13" data-name="Path 13" d="M341.644,415.386h2.606a1.481,1.481,0,0,0,1.628,1.3c.846,0,1.493-.432,1.493-1.178,0-.448-.249-.864-1.261-1.2l-1.362-.414c-2.523-.681-3-2.225-3-3.3,0-2.057,1.759-3.5,4.033-3.5,2.191,0,3.87,1.31,3.87,3.534H347.04a1.2,1.2,0,0,0-1.312-1.261,1.24,1.24,0,0,0-1.345,1.18c0,.232.067.747,1.13,1.045l1.2.382c1.625.5,3.285,1.327,3.285,3.4,0,2.457-2.125,3.554-4.216,3.554C343.338,418.923,341.644,417.494,341.644,415.386Z" transform="translate(-297.657 -407.087)" fill="#3da37b"></path><path id="Path_14" data-name="Path 14" d="M349.206,412.979a5.818,5.818,0,0,1,10.624-3.353l-2.024,1.411a3.038,3.038,0,0,0-2.675-1.495,3.466,3.466,0,0,0-.015,6.923,3.05,3.05,0,0,0,2.69-1.493l2.024,1.411a5.824,5.824,0,0,1-4.813,2.54A5.89,5.89,0,0,1,349.206,412.979Z" transform="translate(-293.881 -407.087)" fill="#3da37b"></path><path id="Path_15" data-name="Path 15" d="M358.528,418.657V407.219h2.607v11.438Z" transform="translate(-289.226 -407.021)" fill="#3da37b"></path><path id="Path_16" data-name="Path 16" d="M365.739,416.383h4.882v2.275h-7.488V407.219h7.338v2.274h-4.732v2.357h4.153v2.342h-4.153Z" transform="translate(-286.927 -407.021)" fill="#3da37b"></path><path id="Path_17" data-name="Path 17" d="M376.693,407.219H379.3v11.438H377.01l-3.753-6.575v6.575h-2.606V407.219h2.391l3.651,6.491Z" transform="translate(-283.173 -407.021)" fill="#3da37b"></path><path id="Path_18" data-name="Path 18" d="M378.832,412.979a5.818,5.818,0,0,1,10.624-3.353l-2.024,1.411a3.038,3.038,0,0,0-2.672-1.495,3.465,3.465,0,0,0-.02,6.923,3.052,3.052,0,0,0,2.691-1.493l2.024,1.411a5.821,5.821,0,0,1-4.813,2.54A5.889,5.889,0,0,1,378.832,412.979Z" transform="translate(-279.088 -407.087)" fill="#3da37b"></path><path id="Path_19" data-name="Path 19" d="M390.761,416.383h4.88v2.275h-7.486V407.219h7.336v2.274h-4.73v2.357h4.149v2.342h-4.149Z" transform="translate(-274.432 -407.021)" fill="#3da37b"></path></g><g id="Group_5" data-name="Group 5" transform="translate(126.362 331.502)"><path id="Path_20" data-name="Path 20" d="M211.023,355.966,176.684,331.5v48.929Z" transform="translate(-101.234 -331.502)" fill="#3da37b"></path><path id="Path_21" data-name="Path 21" d="M201.469,411.231l-23.612-25.179-8.137-.072,23.68,25.251Z" transform="translate(-104.712 -304.299)" fill="#f8ad3b"></path><path id="Path_22" data-name="Path 22" d="M188.75,411.231l-23.612-25.179-8.326-.072,23.679,25.251Z" transform="translate(-111.157 -304.299)" fill="#f8ad3b"></path><path id="Path_23" data-name="Path 23" d="M201.868,347.677l-.057,8.606-39.492,38.746-35.957,35.278,12.92.091,18.613-18.386,24.895.139h0a40.794,40.794,0,0,0,41.058-40.341V347.6" transform="translate(-126.362 -323.466)" fill="#3da37b"></path><path id="Path_24" data-name="Path 24" d="M153.508,387.474l11.945.112c13.671.133,22.74-10.894,22.8-24.565V353.39Z" transform="translate(-112.807 -320.572)" fill="#75ba9d"></path><path id="Path_25" data-name="Path 25" d="M157.815,401.552h11.233a33.763,33.763,0,0,0,33.763-33.763v-19.97h10.534V371.7a40.793,40.793,0,0,1-41.058,40.341h0l-24.895-.139Z" transform="translate(-115.861 -323.354)" fill="#218c61"></path><path id="Path_26" data-name="Path 26" d="M191.409,359.465l12.263-8.736-12.263-8.736Z" transform="translate(-93.882 -326.264)" fill="#f8ad3b"></path><path id="Path_27" data-name="Path 27" d="M191.409,356.555l12.263-8.736H191.409Z" transform="translate(-93.882 -323.354)" fill="#f4901e"></path><path id="Path_28" data-name="Path 28" d="M194.931,359.465l-10.575-8.736,10.575-8.736Z" transform="translate(-97.404 -326.264)"></path></g></g></svg> 